<?xml version="1.0" encoding="utf-8"?>
<!-- Generator: Adobe Illustrator 25.2.3, SVG Export Plug-In . SVG Version: 6.00 Build 0)  -->
<svg version="1.1" baseProfile="tiny" id="IMAGOTIPO"
	 xmlns="http://www.w3.org/2000/svg" xmlns:xlink="http://www.w3.org/1999/xlink" x="0px" y="0px" viewBox="0 0 82 60"
	 overflow="visible" xml:space="preserve">
<path fill="#808080" d="M30.536,41.885c-4.071,5.05-11.809,6.727-18,3.901c-6.964-3.179-8.63-10.653-8.975-12.868
	C2.342,25.086,6.872,19.183,8.56,17.296c4.819,0.663,9.519,2.351,13.642,4.905c5.019,3.109,8.394,6.973,10.536,10.115
	c0.28,0.429,0.564,0.855,0.829,1.295C33.432,35.939,32.772,39.111,30.536,41.885z M41.006,55.049
	c-4.211-7.956-4.399-14.039-2.204-16.137c0.664-0.635,1.367-0.968,2.088-1.014c0.01,0,0.032,0,0.039,0c0.001,0,0.002,0,0.004,0
	c0.026,0,0.049-0.006,0.075-0.008l0.003-3.361c-0.006,0-0.172,0.009-0.249,0.013c-0.445-0.015-1.315-0.084-1.913-0.295
	c-1.242-0.438-1.886-1.456-2.106-1.874c-0.006-0.012-0.015-0.023-0.022-0.034c-0.007-0.012-0.01-0.025-0.017-0.037
	c-0.002-0.003-0.004-0.005-0.005-0.008c0-0.001-0.001-0.002-0.001-0.002c-0.394-0.657-0.808-1.302-1.24-1.934
	c-2.12-3.221-4.598-6.168-7.432-8.748c-2.641-2.404-5.526-4.46-8.619-6.176c-1.551-0.929-7.562-4.678-12.101-9.083
	c-1.432-1.39-3.171-3.285-4.942-5.792c-0.728-1.03-2.336-0.523-2.336,0.742l0,9.407c0,0.087,0.029,0.17,0.049,0.253l-0.05-0.043
	v18.945c-0.004,0.188-0.001,0.376,0,0.563v1.052l0.029-0.073c0.037,0.678,0.096,1.356,0.201,2.029
	c0.41,2.634,2.407,11.529,10.894,15.402c2.448,1.117,5.098,1.652,7.733,1.652c5.476,0,10.882-2.31,14.258-6.497
	c0.351-0.436,0.665-0.879,0.957-1.325c-0.041,1.064,0.019,2.205,0.211,3.436c0.618,3.97,2.414,8.497,5.193,13.09
	C39.814,59.712,40.366,60,40.932,60c0.025,0,0.05-0.009,0.074-0.01C41.031,59.991,41.056,60,41.08,60L41.006,55.049z"/>
<path fill="#E6E6E6" d="M48.442,33.609c0.266-0.44,0.549-0.866,0.829-1.295c2.141-3.142,5.517-7.005,10.536-10.115
	c4.123-2.554,8.823-4.242,13.642-4.905c1.687,1.887,6.218,7.789,4.999,15.621c-0.345,2.215-2.011,9.69-8.975,12.868
	c-6.191,2.826-13.929,1.149-18-3.901C49.237,39.109,48.577,35.937,48.442,33.609z M40.929,59.998c0.025,0,0.05-0.009,0.074-0.01
	c0.025,0.001,0.05,0.01,0.074,0.01c0.566,0,1.118-0.288,1.432-0.808c2.779-4.593,4.575-9.12,5.193-13.09
	c0.192-1.231,0.252-2.372,0.211-3.436c0.291,0.446,0.606,0.89,0.957,1.325c3.376,4.187,8.782,6.497,14.258,6.497
	c2.634,0,5.285-0.535,7.733-1.652c8.487-3.874,10.484-12.768,10.894-15.402c0.105-0.674,0.164-1.351,0.201-2.029l0.029,0.073v-1.052
	c0.001-0.188,0.004-0.375,0-0.563V10.916l-0.05,0.043c0.021-0.084,0.049-0.166,0.049-0.253l0-9.407c0-1.265-1.609-1.772-2.336-0.742
	c-1.771,2.507-3.51,4.402-4.942,5.792c-4.539,4.405-10.551,8.154-12.101,9.083c-3.093,1.716-5.979,3.772-8.619,6.176
	c-2.834,2.58-5.312,5.527-7.432,8.748c-0.432,0.632-0.846,1.277-1.24,1.934c0,0.001-0.001,0.002-0.001,0.002
	c-0.002,0.003-0.004,0.005-0.005,0.008c-0.007,0.012-0.01,0.025-0.017,0.037c-0.008,0.011-0.016,0.022-0.022,0.034
	c-0.22,0.418-0.864,1.436-2.106,1.874c-0.597,0.211-1.468,0.28-1.913,0.295c-0.077-0.004-0.242-0.013-0.249-0.013l0.003,3.361
	c0.025,0.001,0.049,0.008,0.075,0.008c0.001,0,0.002,0,0.004,0c0.007,0,0.028,0,0.039,0c0.721,0.046,1.423,0.379,2.088,1.014
	c2.194,2.098,2.007,8.181-2.204,16.137L40.929,59.998z"/>
<path id="SHADOW_x5F_EYE_x5F_R_1_" fill="#1D1D1B" d="M6.416,20.164c0.817-1.303,1.618-2.28,2.144-2.867
	c4.819,0.663,9.519,2.351,13.642,4.905c5.724,3.546,9.311,8.073,11.367,11.392c-0.031,0.751-0.128,1.643-0.359,2.624
	c-0.146,0.621-0.305,1.226-0.489,1.719c-3.133-4.35-9.278-12.682-19.738-16.211C10.67,20.944,8.459,20.456,6.416,20.164z"/>
<path id="SHADOW_x5F_EYE_x5F_R" fill="#1D1D1B" d="M75.596,20.164c-0.817-1.303-1.618-2.28-2.144-2.867
	c-4.819,0.663-9.519,2.351-13.642,4.905c-5.724,3.546-9.311,8.073-11.367,11.392c0.031,0.751,0.128,1.643,0.359,2.624
	c0.146,0.621,0.305,1.226,0.489,1.719c3.133-4.35,9.278-12.682,19.738-16.211C71.342,20.944,73.553,20.456,75.596,20.164z"/>
</svg>
