<?xml version="1.0" encoding="utf-8"?>
<!-- Generator: Adobe Illustrator 25.2.3, SVG Export Plug-In . SVG Version: 6.00 Build 0)  -->
<svg version="1.1" baseProfile="tiny" id="IMAGOTIPO"
	 xmlns="http://www.w3.org/2000/svg" xmlns:xlink="http://www.w3.org/1999/xlink" x="0px" y="0px" viewBox="0 0 82 60"
	 overflow="visible" xml:space="preserve">
<g id="BLACK_x5F_BG">
	<polygon fill="#1D1D1B" points="39.028,36.107 36,41.325 36.934,51.395 41.208,57.644 44.478,53.701 46.477,41.567 43.638,35.713 	
		"/>
	<g>
		<path fill="#1D1D1B" d="M73.452,17.296c-4.819,0.663-9.519,2.351-13.642,4.905c-5.724,3.546-9.311,8.073-11.367,11.392
			c0.132,2.33,0.79,5.511,3.032,8.292c4.071,5.05,11.809,6.726,18,3.901c6.964-3.178,8.63-10.653,8.975-12.868
			C79.67,25.085,75.14,19.183,73.452,17.296z"/>
		<path fill="#1D1D1B" d="M22.202,22.201c-4.123-2.554-8.823-4.242-13.642-4.905c-1.687,1.887-6.218,7.79-4.999,15.621
			c0.345,2.215,2.011,9.69,8.975,12.868c6.191,2.826,13.929,1.149,18-3.901c2.242-2.781,2.9-5.962,3.032-8.292
			C31.513,30.275,27.925,25.747,22.202,22.201z"/>
	</g>
</g>
</svg>
